<svg aria-hidden="true" style="position: absolute; width: 0; height: 0; overflow: hidden;" version="1.1" xmlns="http://www.w3.org/2000/svg" xmlns:xlink="http://www.w3.org/1999/xlink">
    <defs>
<symbol id="cart" viewBox="0 0 26 26">
        <path  stroke-linecap="round" stroke-linejoin="round" stroke-width="2" d="M9 10V6a3 3 0 0 1 3-3v0a3 3 0 0 1 3 3v4m3-2 .917 11.923A1 1 0 0 1 17.92 21H6.08a1 1 0 0 1-.997-1.077L6 8h12Z"/>
</symbol>
        <symbol id="account" viewBox="0 0 32 32">
                <path stroke="currentColor" stroke-width="2" d="M7 17v1a1 1 0 0 0 1 1h8a1 1 0 0 0 1-1v-1a3 3 0 0 0-3-3h-4a3 3 0 0 0-3 3Zm8-9a3 3 0 1 1-6 0 3 3 0 0 1 6 0Z"/>
        </symbol>
        <symbol id="rocket" viewBox="0 0 24 24">
                <path stroke="#006A4E" stroke-linecap="round" stroke-linejoin="round" stroke-width="2" d="m10.051 8.102-3.778.322-1.994 1.994a.94.94 0 0 0 .533 1.6l2.698.316m8.39 1.617-.322 3.78-1.994 1.994a.94.94 0 0 1-1.595-.533l-.4-2.652m8.166-11.174a1.366 1.366 0 0 0-1.12-1.12c-1.616-.279-4.906-.623-6.38.853-1.671 1.672-5.211 8.015-6.31 10.023a.932.932 0 0 0 .162 1.111l.828.835.833.832a.932.932 0 0 0 1.111.163c2.008-1.102 8.35-4.642 10.021-6.312 1.475-1.478 1.133-4.77.855-6.385Zm-2.961 3.722a1.88 1.88 0 1 1-3.76 0 1.88 1.88 0 0 1 3.76 0Z"/>
        </symbol>
        <symbol id="emoji"  viewBox="0 0 24 24">
                <path stroke="orange" stroke-linecap="round" stroke-linejoin="round" stroke-width="2" d="M12 21a9 9 0 1 0 0-18 9 9 0 0 0 0 18Z"/>
                <path stroke="coral" stroke-linecap="round" stroke-linejoin="round" stroke-width="2" d="M17 13c0 2.038-2.239 4.5-5 4.5S7 15.038 7 13c0 1.444 10 1.444 10 0Z"/>
                <path fill="red" d="m9 6.811.618 1.253 1.382.2-1 .975.236 1.377L9 9.966l-1.236.65L8 9.239l-1-.975 1.382-.2L9 6.811Zm6 0 .618 1.253 1.382.2-1 .975.236 1.377L15 9.966l-1.236.65L14 9.239l-1-.975 1.382-.2L15 6.811Z"/>
                <path stroke="#006A4E" stroke-linecap="round" stroke-linejoin="round" d="m9 6.811.618 1.253 1.382.2-1 .975.236 1.377L9 9.966l-1.236.65L8 9.239l-1-.975 1.382-.2L9 6.811Zm6 0 .618 1.253 1.382.2-1 .975.236 1.377L15 9.966l-1.236.65L14 9.239l-1-.975 1.382-.2L15 6.811Z"/>
        </symbol>
        <symbol id="euro"  viewBox="0 0 24 24">
                <path stroke="#006A4E" stroke-linecap="round" stroke-linejoin="round" stroke-width="2" d="M6 10h9.231M6 14h9.231M18 5.086A5.95 5.95 0 0 0 14.615 4c-3.738 0-6.769 3.582-6.769 8s3.031 8 6.769 8A5.94 5.94 0 0 0 18 18.916"/>
        </symbol>
        <symbol id="clock"  viewBox="0 0 24 24">
                <path stroke="currentColor" stroke-linecap="round" stroke-linejoin="round" stroke-width="2" d="M12 8v4l3 3m6-3a9 9 0 1 1-18 0 9 9 0 0 1 18 0Z"/>
        </symbol>
        <symbol id="truck"  viewBox="0 0 24 24">
                <path stroke="#006A4E" stroke-linecap="round" stroke-linejoin="round" stroke-width="2" d="M13 7h6l2 4m-8-4v8m0-8V6a1 1 0 0 0-1-1H4a1 1 0 0 0-1 1v9h2m8 0H9m4 0h2m4 0h2v-4m0 0h-5m3.5 5.5a2.5 2.5 0 1 1-5 0 2.5 2.5 0 0 1 5 0Zm-10 0a2.5 2.5 0 1 1-5 0 2.5 2.5 0 0 1 5 0Z"/>
        </symbol>
    </defs>
</svg>